<?xml version="1.0" standalone="no"?>
<!DOCTYPE svg PUBLIC "-//W3C//DTD SVG 20010904//EN"
 "http://www.w3.org/TR/2001/REC-SVG-20010904/DTD/svg10.dtd">
<svg version="1.0" xmlns="http://www.w3.org/2000/svg"
 width="800.000000pt" height="800.000000pt" viewBox="0 0 800.000000 800.000000"
 preserveAspectRatio="xMidYMid meet">

<g transform="translate(0.000000,800.000000) scale(0.100000,-0.100000)"
fill="#000000" stroke="none">
<path d="M175 3975 l0 -3795 3833 0 3832 0 0 3795 0 3795 -3832 0 -3833 0 0
-3795z m2199 2969 c14 -5 16 -36 16 -245 l0 -239 48 29 c26 16 83 42 127 56
141 48 274 22 331 -64 51 -78 57 -114 62 -429 3 -207 8 -295 16 -297 6 -2 32
-6 59 -10 l47 -6 0 -40 0 -39 -210 0 -210 0 0 39 0 40 48 6 c102 13 92 -6 91
178 -1 364 -21 472 -93 502 -68 29 -227 12 -293 -31 l-23 -14 0 -310 c0 -346
-8 -312 78 -325 41 -7 42 -8 42 -46 l0 -39 -200 0 -200 0 0 39 c0 38 1 39 43
46 86 13 77 -49 75 543 l-3 526 -56 11 c-71 15 -79 20 -79 56 0 35 4 37 112
54 96 15 150 18 172 9z m-369 -174 l0 -125 -38 -3 c-24 -2 -39 1 -42 10 -2 7
-11 39 -20 70 l-16 57 -52 5 c-29 3 -89 7 -134 9 l-83 4 0 -517 0 -517 68 -7
c131 -13 132 -13 132 -57 l0 -39 -280 0 -280 0 0 39 c0 44 2 45 125 57 l65 7
0 517 0 518 -67 -4 c-38 -3 -100 -7 -139 -10 l-71 -5 -25 -62 c-25 -61 -26
-62 -68 -65 l-42 -3 6 98 c4 54 9 110 12 126 l6 27 471 -2 472 -3 0 -125z
m1751 -207 c76 -26 147 -103 173 -188 21 -66 30 -231 15 -269 -5 -14 -41 -16
-296 -16 l-290 0 6 -57 c10 -88 60 -181 118 -220 87 -58 234 -65 370 -18 23 8
43 13 45 12 1 -2 9 -20 18 -40 l16 -38 -65 -30 c-81 -38 -210 -62 -296 -56
-179 14 -313 129 -355 308 -19 83 -19 219 0 294 42 159 160 279 315 321 65 18
169 17 226 -3z m-595 -1783 c18 -10 19 -24 19 -243 l0 -233 88 43 c197 97 365
75 432 -57 33 -66 40 -136 41 -420 l0 -278 60 -6 59 -7 0 -39 0 -40 -205 0
-205 0 0 39 0 39 66 7 66 8 -4 276 c-3 271 -3 277 -28 326 -36 71 -71 88 -177
82 -59 -3 -97 -12 -137 -30 l-56 -26 0 -314 0 -315 55 -7 55 -6 0 -40 0 -39
-195 0 -195 0 0 40 0 39 60 7 60 7 0 528 0 528 -57 11 c-84 16 -83 16 -83 58
l0 39 113 15 c144 20 145 20 168 8z m3053 -6 c14 -14 16 -82 16 -598 l0 -583
62 -7 c72 -7 81 -13 76 -52 l-3 -29 -217 -3 -218 -2 0 39 0 39 65 7 65 7 0
529 0 529 -27 6 c-93 21 -88 17 -91 61 l-3 41 108 15 c143 20 149 20 167 1z
m-4451 -63 l67 -22 0 -120 0 -120 -37 3 c-36 3 -38 5 -69 82 -38 97 -55 108
-177 114 -139 7 -220 -38 -247 -139 -31 -116 34 -193 279 -329 171 -94 261
-169 301 -246 20 -40 25 -64 25 -124 -1 -217 -185 -345 -470 -327 -100 7 -216
29 -270 51 l-35 15 0 131 0 131 42 -3 42 -3 23 -75 c15 -49 31 -83 48 -97 37
-33 128 -56 221 -57 71 -1 88 3 139 29 78 40 108 93 103 178 -8 104 -59 156
-293 291 -227 130 -315 232 -315 361 0 136 95 246 250 291 72 21 288 12 373
-15z m902 -313 c63 -16 65 -21 65 -123 0 -102 -5 -110 -59 -99 -23 5 -33 16
-50 55 -24 58 -61 79 -138 79 -73 0 -121 -18 -168 -61 -61 -56 -88 -123 -93
-235 -9 -188 51 -323 172 -387 64 -33 220 -25 317 17 12 5 20 -2 32 -31 15
-36 14 -39 -6 -55 -64 -51 -251 -88 -354 -70 -194 34 -306 179 -320 412 -6
107 9 187 53 278 55 112 187 209 314 231 61 11 173 6 235 -11z m1910 -12 c156
-71 246 -251 231 -463 -14 -192 -108 -339 -264 -411 -49 -23 -70 -27 -152 -27
-153 0 -244 45 -322 161 -52 77 -70 140 -75 275 -6 128 7 194 55 282 30 57
112 137 170 166 112 57 255 64 357 17z m906 20 c186 -43 293 -204 293 -441 0
-209 -87 -366 -249 -446 -164 -81 -383 -29 -481 114 -69 101 -102 253 -84 394
34 264 273 438 521 379z m-2672 -1760 c6 -4 11 -36 11 -78 0 -63 -2 -69 -17
-63 -10 4 -57 10 -105 13 -139 7 -158 -17 -158 -205 l0 -103 115 0 115 0 0
-60 0 -60 -115 0 -114 0 -3 -339 -3 -340 75 -6 c41 -3 82 -7 90 -8 10 -1 16
-16 18 -40 l3 -37 -255 0 -256 0 0 35 c0 41 1 41 93 50 l67 7 0 339 0 339 -86
0 -85 0 3 37 3 36 80 22 80 21 8 77 c13 134 60 227 150 301 69 56 129 77 208
73 37 -2 71 -7 78 -11z m3466 -48 l25 -11 0 -234 c0 -128 2 -233 4 -233 3 0
26 13 53 29 150 92 337 98 425 14 68 -65 88 -182 88 -519 l0 -231 31 -7 c17
-3 42 -6 54 -6 24 0 35 -17 35 -56 l0 -24 -211 0 -210 0 3 38 3 37 63 8 62 9
0 257 c0 342 -16 395 -122 423 -58 15 -168 -1 -235 -33 l-43 -21 0 -313 0
-314 48 -6 c70 -10 72 -11 72 -50 l0 -35 -201 0 -200 0 3 38 c3 37 3 37 61 46
l57 8 0 528 0 527 -67 14 -68 14 0 40 0 40 115 16 c63 9 118 17 122 18 4 0 19
-4 33 -11z m-2085 -172 c0 -120 -1 -124 -22 -130 -50 -13 -55 -9 -73 65 -10
39 -23 72 -29 74 -6 2 -68 6 -138 10 l-128 7 0 -516 0 -515 33 -6 c17 -3 64
-9 102 -13 l70 -7 3 -37 3 -38 -286 0 -286 0 3 38 3 37 65 7 c36 5 79 10 95
13 l30 5 0 516 0 515 -130 -6 c-71 -4 -134 -8 -140 -10 -5 -1 -21 -32 -35 -69
l-24 -66 -44 0 -44 0 6 38 c3 20 8 76 12 125 l6 87 474 0 474 0 0 -124z
m-2374 -217 c66 -25 151 -100 187 -166 55 -102 74 -285 42 -408 -35 -133 -128
-250 -242 -303 -52 -24 -69 -27 -168 -27 -100 0 -115 3 -166 28 -141 69 -229
234 -229 432 0 142 45 259 134 348 114 114 291 152 442 96z m3026 5 c61 -20
123 -81 156 -152 22 -48 27 -75 30 -173 3 -92 1 -118 -10 -130 -12 -12 -63
-14 -296 -14 l-282 0 0 -30 c0 -45 25 -130 49 -169 72 -116 218 -154 406 -106
43 11 79 19 80 18 10 -13 25 -50 25 -62 0 -9 -22 -27 -50 -41 -79 -40 -171
-57 -286 -53 -89 3 -108 7 -167 36 -143 70 -217 213 -217 417 0 202 85 353
243 430 114 55 212 65 319 29z m971 -7 l37 -16 0 -100 0 -101 -40 0 c-39 0
-41 2 -68 57 -23 48 -33 59 -67 71 -90 31 -212 -6 -271 -83 -79 -104 -85 -325
-14 -466 30 -57 93 -115 147 -133 75 -26 159 -19 302 25 8 2 18 -10 26 -33 13
-36 13 -38 -12 -58 -65 -51 -265 -83 -375 -61 -121 26 -228 129 -269 261 -87
281 33 553 286 643 65 23 260 20 318 -6z"/>
<path d="M3499 6460 c-67 -35 -116 -119 -132 -225 l-6 -40 211 3 211 3 -5 77
c-6 91 -33 153 -81 182 -44 27 -148 27 -198 0z"/>
<path d="M4294 4301 c-81 -37 -122 -126 -131 -281 -12 -214 52 -376 169 -424
73 -31 163 -14 220 41 49 47 71 122 76 266 8 225 -34 343 -140 398 -49 25
-139 25 -194 0z"/>
<path d="M5264 4301 c-47 -22 -86 -68 -111 -132 -13 -34 -17 -78 -17 -189 -1
-177 19 -250 89 -328 109 -121 286 -87 347 66 20 51 22 74 22 222 0 149 -2
171 -23 223 -43 109 -107 157 -208 157 -35 0 -74 -8 -99 -19z"/>
<path d="M1555 2121 c-22 -10 -50 -29 -62 -42 -108 -118 -104 -466 8 -602 64
-78 170 -100 259 -54 78 39 115 121 126 281 10 146 -16 278 -69 348 -61 82
-172 111 -262 69z"/>
<path d="M4609 2126 c-91 -32 -141 -106 -164 -238 l-6 -38 211 0 210 0 0 58
c0 177 -107 270 -251 218z"/>
</g>
</svg>
